<svg xmlns="http://www.w3.org/2000/svg" viewBox="0 0 1200 900" role="img">
  <defs>
    <linearGradient id="mw" x1="0" y1="0" x2="0" y2="1">
      <stop offset="0%" stop-color="#fff6d8"/>
      <stop offset="55%" stop-color="#f0c56e"/>
      <stop offset="100%" stop-color="#d4923a"/>
    </linearGradient>
    <radialGradient id="glow" cx="0.28" cy="0.35" r="0.7">
      <stop offset="0%" stop-color="#e4b25a" stop-opacity="0.22"/>
      <stop offset="100%" stop-color="#14110e" stop-opacity="0"/>
    </radialGradient>
  </defs>
  <rect width="1200" height="900" fill="#14110e"/>
  <rect width="1200" height="900" fill="url(#glow)"/>
  <rect y="640" width="1200" height="260" fill="#1c1713"/>
  <polygon points="0,640 1200,700 1200,900 0,900" fill="#16120e"/>
  <rect width="1200" height="640" fill="#1a1612"/>
  <rect width="1200" height="640" fill="url(#glow)"/>
  <rect x="70" y="70" width="320" height="470" fill="#3a2a18" rx="6"/>
  <rect x="90" y="90" width="280" height="430" fill="url(#mw)"/>
  <line x1="230" y1="90" x2="230" y2="520" stroke="#8a5e20" stroke-width="8"/>
  <line x1="90" y1="300" x2="370" y2="300" stroke="#8a5e20" stroke-width="8"/>
  <polygon points="90,560 370,560 640,640 160,640" fill="#e4b25a" opacity="0.16"/>
  <polygon points="180,640 560,640 500,900 60,900" fill="#e4b25a" opacity="0.07"/>
  <rect x="430" y="560" width="680" height="28" rx="4" fill="#4a3826"/>
  <rect x="450" y="588" width="16" height="110" fill="#2e2418"/>
  <rect x="1070" y="588" width="16" height="110" fill="#2e2418"/>
  <rect x="500" y="600" width="70" height="12" rx="3" fill="#6b5340"/>
  <rect x="518" y="612" width="12" height="70" fill="#3d2e22"/>
  <rect x="540" y="612" width="12" height="70" fill="#3d2e22"/>
  <rect x="680" y="600" width="70" height="12" rx="3" fill="#6b5340"/>
  <rect x="698" y="612" width="12" height="70" fill="#3d2e22"/>
  <rect x="720" y="612" width="12" height="70" fill="#3d2e22"/>
  <rect x="860" y="600" width="70" height="12" rx="3" fill="#6b5340"/>
  <rect x="878" y="612" width="12" height="70" fill="#3d2e22"/>
  <rect x="900" y="612" width="12" height="70" fill="#3d2e22"/>
  <rect x="490" y="528" width="78" height="8" rx="2" fill="#c9b8a3"/>
  <rect x="500" y="498" width="58" height="32" rx="2" fill="#2a241e"/>
  <rect x="670" y="528" width="78" height="8" rx="2" fill="#c9b8a3"/>
  <rect x="680" y="498" width="58" height="32" rx="2" fill="#2a241e"/>
  <rect x="850" y="528" width="78" height="8" rx="2" fill="#c9b8a3"/>
  <rect x="860" y="498" width="58" height="32" rx="2" fill="#2a241e"/>
  <ellipse cx="590" cy="548" rx="12" ry="6" fill="#c8892d"/>
  <rect x="580" y="536" width="20" height="14" rx="3" fill="#e4b25a"/>
  <rect x="1088" y="500" width="18" height="60" fill="#3d2e22"/>
  <ellipse cx="1097" cy="470" rx="36" ry="44" fill="#3f5c3a"/>
  <ellipse cx="1074" cy="490" rx="22" ry="28" fill="#2f4a2c"/>
  <ellipse cx="1120" cy="488" rx="20" ry="26" fill="#4a6b40"/>
  <line x1="760" y1="40" x2="760" y2="160" stroke="#c9b8a3" stroke-width="2"/>
  <polygon points="720,160 800,160 784,200 736,200" fill="#e4b25a"/>
  <ellipse cx="760" cy="230" rx="56" ry="20" fill="#e4b25a" opacity="0.12"/>
  <rect x="980" y="140" width="130" height="130" rx="16" fill="#0a0908" stroke="#c8892d" stroke-width="3"/>

</svg>
